<svg width="18" height="20" viewBox="0 0 18 20" fill="none" xmlns="http://www.w3.org/2000/svg">
<path d="M0.912227 6.73183L0.912844 6.73057C1.02091 6.51048 1.16509 6.33776 1.34806 6.20145L1.34809 6.20148L1.35453 6.19657L8.09977 1.05735C8.24716 0.94904 8.39288 0.873608 8.53743 0.824663C8.68292 0.775396 8.83589 0.75 9 0.75C9.16411 0.75 9.31708 0.775396 9.46257 0.824663C9.60712 0.873608 9.75284 0.94904 9.90023 1.05735L16.6455 6.19657L16.6454 6.19661L16.6519 6.20145C16.8351 6.33792 16.9799 6.51098 17.0888 6.73155C17.1968 6.95184 17.25 7.18125 17.25 7.42857V17.7143C17.25 18.1461 17.1072 18.4953 16.8054 18.8028C16.503 19.1094 16.1645 19.25 15.75 19.25H12V12V11.25H11.25H6.75H6V12V19.25H2.25C1.83541 19.25 1.49752 19.1093 1.19599 18.803C0.893078 18.4953 0.75 18.146 0.75 17.7143V7.42857C0.75 7.18147 0.803514 6.95218 0.912227 6.73183ZM0.239625 6.4C0.398625 6.07619 0.61875 5.80952 0.9 5.6L0.239625 6.4Z" stroke="#555555" stroke-width="1.5"/>
</svg>
