<svg width="27" height="26" viewBox="0 0 27 26" fill="none" xmlns="http://www.w3.org/2000/svg">
<path d="M26.0833 7.83333V7.0449L26.0151 7.04831C25.6605 5.0432 23.9617 3.58333 21.8333 3.58333H20.25V3.16667C20.25 2.64623 20.0732 2.15425 19.7095 1.7905C19.3457 1.42675 18.8538 1.25 18.3333 1.25C17.8129 1.25 17.3209 1.42675 16.9572 1.7905C16.5934 2.15425 16.4167 2.64623 16.4167 3.16667V3.58333H10.9167V3.16667C10.9167 2.64623 10.7399 2.15425 10.3762 1.7905C10.0124 1.42675 9.52044 1.25 9 1.25C8.47956 1.25 7.98759 1.42675 7.62384 1.7905C7.26009 2.15425 7.08333 2.64623 7.08333 3.16667V3.58333H5.5C3.10245 3.58333 1.25 5.43579 1.25 7.83333V8.28656V9V9.71344V20.5C1.25 22.8975 3.10245 24.75 5.5 24.75H21.8333C24.2309 24.75 26.0833 22.8975 26.0833 20.5V9.64104V7.83333Z" stroke="#131316" stroke-width="1.5"/>
<path d="M1.5 10.5H25.5" stroke="#131316" stroke-width="1.5"/>
</svg>
