<svg width="24" height="24" viewBox="0 0 24 24" fill="none" xmlns="http://www.w3.org/2000/svg">
<path d="M0 19.8333C0 21.8167 1.51667 23.3333 3.5 23.3333H19.8333C21.8167 23.3333 23.3333 21.8167 23.3333 19.8333V10.5H0V19.8333ZM19.8333 2.33333H17.5V1.16667C17.5 0.466667 17.0333 0 16.3333 0C15.6333 0 15.1667 0.466667 15.1667 1.16667V2.33333H8.16667V1.16667C8.16667 0.466667 7.7 0 7 0C6.3 0 5.83333 0.466667 5.83333 1.16667V2.33333H3.5C1.51667 2.33333 0 3.85 0 5.83333V8.16667H23.3333V5.83333C23.3333 3.85 21.8167 2.33333 19.8333 2.33333Z" fill="black"/>
</svg>
