<svg width="24" height="24" viewBox="0 0 24 24" fill="none" xmlns="http://www.w3.org/2000/svg">
<path d="M22.5908 8.37043L22.5867 8.36332L22.5826 8.3563L20.5303 4.90447C20.1931 4.31483 19.528 4.18093 19.0282 4.33561L19.0023 4.34364L18.977 4.35351L16.7936 5.20659C16.4301 4.9612 16.0471 4.73993 15.6374 4.54981L15.3123 2.31894L15.311 2.30966L15.3094 2.30042C15.2031 1.68009 14.668 1.25 14.0561 1.25H9.94388C9.31277 1.25 8.80438 1.69903 8.70134 2.30042L8.69975 2.30966L8.6984 2.31894L8.37327 4.55035C7.96242 4.74184 7.57741 4.96558 7.21825 5.20704L5.0337 4.35351L5.02235 4.34908L5.01086 4.34501C4.46601 4.15229 3.80482 4.33633 3.47988 4.90538L1.43798 8.35778L1.43686 8.35969C1.13573 8.87229 1.20986 9.58542 1.77125 9.98198L3.58027 11.3516C3.55599 11.5604 3.53957 11.7807 3.53957 12C3.53957 12.2073 3.54757 12.4252 3.56652 12.6426L1.73811 14.0269C1.73805 14.0269 1.73798 14.027 1.73791 14.027C1.23701 14.4062 1.11193 15.1037 1.40925 15.6296L1.41327 15.6367L1.41744 15.6437L3.46966 19.0955C3.80685 19.6852 4.47199 19.8191 4.9718 19.6644L4.99772 19.6564L5.02299 19.6465L7.2064 18.7934C7.56992 19.0388 7.95289 19.2601 8.36264 19.4502L8.68769 21.6811L8.69128 21.7057L8.69649 21.73C8.81866 22.3004 9.30784 22.75 9.94388 22.75H14.0561C14.6589 22.75 15.2151 22.3242 15.3023 21.6761L15.6266 19.4507C16.0357 19.2618 16.422 19.0411 16.7855 18.7944L18.9663 19.6465L18.9776 19.6509L18.9891 19.655C19.5337 19.8476 20.1945 19.6639 20.5196 19.0955L22.5718 15.6437L22.5767 15.6355L22.5813 15.6272C22.8824 15.0904 22.7712 14.4079 22.247 14.0236L20.4364 12.6393C20.4525 12.4309 20.4604 12.2185 20.4604 12C20.4604 11.788 20.4525 11.5721 20.4337 11.3572L22.2619 9.97311C22.262 9.97306 22.262 9.97301 22.2621 9.97296C22.763 9.59384 22.8881 8.89626 22.5908 8.37043ZM16.6747 5.25303C16.6749 5.25299 16.675 5.25294 16.6751 5.2529L16.6747 5.25303L16.7591 5.46896L16.6747 5.25303ZM8.35461 4.67841C8.35463 4.67826 8.35465 4.67811 8.35467 4.67795L8.35461 4.67841L8.57621 4.7107L8.35461 4.67841ZM7.32526 18.747C7.32503 18.7471 7.3248 18.7471 7.32457 18.7472L7.32526 18.747ZM8.3439 19.3216L8.34394 19.3219L8.3439 19.3216ZM12 15C10.2741 15 8.89478 13.6289 8.89478 12C8.89478 10.3711 10.2741 9 12 9C13.7259 9 15.1052 10.3711 15.1052 12C15.1052 13.6289 13.7259 15 12 15Z" stroke="#45464A" stroke-width="1.5"/>
</svg>
