<svg width="22" height="18" viewBox="0 0 22 18" fill="none" xmlns="http://www.w3.org/2000/svg">
<path d="M0.86902 16.499C0.483055 17.1656 0.964115 18 1.73445 18H20.2656C21.0359 18 21.5169 17.1656 21.131 16.499L11.8654 0.494825C11.4803 -0.170461 10.5197 -0.170458 10.1346 0.494827L0.86902 16.499ZM12 14C12 14.5523 11.5523 15 11 15C10.4477 15 10 14.5523 10 14C10 13.4477 10.4477 13 11 13C11.5523 13 12 13.4477 12 14ZM12 10C12 10.5523 11.5523 11 11 11C10.4477 11 10 10.5523 10 10V8C10 7.44771 10.4477 7 11 7C11.5523 7 12 7.44771 12 8V10Z" fill="#FF5858"/>
</svg>
